<svg class="main-svg" xmlns="http://www.w3.org/2000/svg" xmlns:xlink="http://www.w3.org/1999/xlink" width="2200" height="1000" style="" viewBox="0 0 1100 500"><rect x="0" y="0" width="1100" height="500" style="fill: rgb(255, 255, 255); fill-opacity: 1;"/><defs id="defs-f34dc7"><g class="clips"><clipPath id="clipf34dc7xyplot" class="plotclip"><rect width="1012" height="385"/></clipPath><clipPath class="axesclip" id="clipf34dc7x"><rect x="71" y="0" width="1012" height="500"/></clipPath><clipPath class="axesclip" id="clipf34dc7y"><rect x="0" y="50" width="1100" height="385"/></clipPath><clipPath class="axesclip" id="clipf34dc7xy"><rect x="71" y="50" width="1012" height="385"/></clipPath></g><g class="gradients"/><g class="patterns"/></defs><g class="bglayer"/><g class="layer-below"><g class="imagelayer"/><g class="shapelayer"/></g><g class="cartesianlayer"><g class="subplot xy"><g class="layer-subplot"><g class="shapelayer"/><g class="imagelayer"/></g><g class="minor-gridlayer"><g class="x"/><g class="y"/></g><g class="gridlayer"><g class="x"><path class="xgrid crisp" transform="translate(269.35,0)" d="M0,50v385" style="stroke: rgb(0, 0, 0); stroke-opacity: 0.05; stroke-width: 1px;"/><path class="xgrid crisp" transform="translate(471.75,0)" d="M0,50v385" style="stroke: rgb(0, 0, 0); stroke-opacity: 0.05; stroke-width: 1px;"/><path class="xgrid crisp" transform="translate(674.15,0)" d="M0,50v385" style="stroke: rgb(0, 0, 0); stroke-opacity: 0.05; stroke-width: 1px;"/><path class="xgrid crisp" transform="translate(876.55,0)" d="M0,50v385" style="stroke: rgb(0, 0, 0); stroke-opacity: 0.05; stroke-width: 1px;"/><path class="xgrid crisp" transform="translate(1078.95,0)" d="M0,50v385" style="stroke: rgb(0, 0, 0); stroke-opacity: 0.05; stroke-width: 1px;"/></g><g class="y"><path class="ygrid crisp" transform="translate(0,358)" d="M71,0h1012" style="stroke: rgb(0, 0, 0); stroke-opacity: 0.05; stroke-width: 1px;"/><path class="ygrid crisp" transform="translate(0,281)" d="M71,0h1012" style="stroke: rgb(0, 0, 0); stroke-opacity: 0.05; stroke-width: 1px;"/><path class="ygrid crisp" transform="translate(0,204)" d="M71,0h1012" style="stroke: rgb(0, 0, 0); stroke-opacity: 0.05; stroke-width: 1px;"/><path class="ygrid crisp" transform="translate(0,127)" d="M71,0h1012" style="stroke: rgb(0, 0, 0); stroke-opacity: 0.05; stroke-width: 1px;"/></g></g><g class="zerolinelayer"><path class="yzl zl crisp" transform="translate(0,435)" d="M71,0h1012" style="stroke: rgb(0, 0, 0); stroke-opacity: 0.05; stroke-width: 2px;"/></g><g class="layer-between"><g class="shapelayer"/><g class="imagelayer"/></g><path class="xlines-below"/><path class="ylines-below"/><g class="overlines-below"/><g class="xaxislayer-below"/><g class="yaxislayer-below"/><g class="overaxes-below"/><g class="plot" transform="translate(71,50)" clip-path="url(#clipf34dc7xyplot)"><g class="scatterlayer mlayer"><g class="trace scatter tracef315d4" style="stroke-miterlimit: 2; opacity: 1;"><g class="fills"/><g class="errorbars"/><g class="lines"><path class="js-line" d="M0,146.7L4.05,243.37L8.1,237.57L12.14,242.91L16.19,292.07L20.24,241.08L24.29,234.43L28.34,233.95L32.38,167.14L36.43,245.5L40.48,210.44L44.53,233.15L48.58,205.93L52.62,204.46L56.67,221.25L60.72,227.17L64.77,231.58L68.82,233.1L72.86,228.68L85.01,225.5L89.06,225.1L93.1,227.3L97.15,226.02L101.2,225.61L105.25,226.92L109.3,225.94L113.34,225.97L117.39,227.21L121.44,225.1L125.49,225.03L129.54,226.76L133.58,225.38L137.63,226.32L141.68,226.91L145.73,225.2L153.82,227.19L157.87,226.16L161.92,225.73L165.97,226.48L174.06,225.1L178.11,226.72L182.16,225.13L186.21,225.27L190.26,226.66L194.3,225.47L202.4,227.02L206.45,225.46L210.5,224.96L214.54,225.34L222.64,225.58L226.69,226.45L230.74,225.31L234.78,225.67L238.83,227L242.88,226.02L250.98,225.98L255.02,224.86L263.12,226.48L267.17,225.07L275.26,225.84L279.31,225.31L283.36,225.09L287.41,226.6L291.46,225.41L295.5,225.66L299.55,226.11L303.6,223.94L311.7,225.9L315.74,224.35L323.84,226.28L327.89,224.97L335.98,226.47L340.03,224.97L344.08,225.04L348.13,225.93L352.18,224.69L356.22,225.24L360.27,226.48L364.32,225.75L372.42,225.52L376.46,225.07L384.56,226.23L388.61,224.98L392.66,225.04L396.7,226.1L400.75,224.98L404.8,224.87L408.85,226.69L412.9,225.32L416.94,225.08L420.99,226.2L425.04,224.86L429.09,224.82L433.14,225.87L437.18,224.81L441.23,225.79L445.28,225.61L453.38,224.82L457.42,226L461.47,225L465.52,225.17L469.57,227.96L473.62,225.58L481.71,225.88L485.76,224.36L493.86,225.81L497.9,224.73L501.95,224.53L506,226.3L510.05,224.87L514.1,225.2L518.14,226.49L522.19,226.16L526.24,225.21L530.29,225.33L534.34,225.47L538.38,224.4L542.43,225.73L546.48,224.77L550.53,224.32L554.58,226.3L562.67,224.89L566.72,226.3L570.77,224.47L574.82,225.01L578.86,226.33L582.91,224.66L591.01,226.24L595.06,225.58L599.1,228.88L603.15,239.71L607.2,280.59" style="vector-effect: none; fill: none; stroke: rgb(124, 181, 236); stroke-opacity: 1; stroke-width: 2px; opacity: 1;"/></g><g class="points"/><g class="text"/></g><g class="trace scatter tracea1e2b4" style="stroke-miterlimit: 2; opacity: 1;"><g class="fills"/><g class="errorbars"/><g class="lines"><path class="js-line" d="M0,165.5L4.05,239.08L8.1,236.93L12.14,231.5L16.19,230.5L20.24,236.28L24.29,248.32L28.34,230.56L32.38,228.42L36.43,241.41L40.48,213.04L44.53,216.2L48.58,227.76L52.62,227.97L56.67,230.13L60.72,226.94L64.77,226.82L68.82,229.28L72.86,226.04L76.91,228.93L80.96,226.47L85.01,229.21L89.06,228.56L93.1,226.49L97.15,228.49L101.2,227.57L105.25,227.69L109.3,229.88L113.34,226.09L117.39,229.62L121.44,227.29L125.49,229.06L129.54,227.21L133.58,228.93L137.63,227.34L141.68,226.85L145.73,229.28L153.82,230.36L157.87,230.53L161.92,229.23L165.97,226.61L170.02,227.1L174.06,229.22L178.11,229.26L182.16,227.02L186.21,229.4L190.26,227.17L194.3,226.61L198.35,230.27L206.45,229.04L210.5,226.81L222.64,226.97L226.69,229.26L230.74,226.75L234.78,229.52L238.83,229.29L242.88,227L246.93,229.59L250.98,227.19L255.02,227.33L259.07,228.38L263.12,228.47L267.17,226.76L271.22,228.93L275.26,228.76L279.31,229.72L283.36,229.02L291.46,229.38L295.5,229.45L303.6,229.48L307.65,228.27L315.74,228.59L319.79,227.8L323.84,228.68L327.89,228.09L344.08,228.25L348.13,227.81L352.18,228.34L356.22,227.85L364.32,227.44L368.37,227.23L372.42,228.24L376.46,227.77L380.51,227.22L384.56,227.43L388.61,226.67L392.66,227.11L408.85,227.66L412.9,227.26L416.94,226.9L420.99,228.22L433.14,226.99L437.18,226.92L441.23,227.69L445.28,227.41L449.33,227.67L453.38,227.1L457.42,227.13L461.47,226.4L477.66,227.21L481.71,227.36L485.76,226.68L489.81,227.84L497.9,227.28L501.95,225.77L506,226.97L510.05,226.64L514.1,225.86L518.14,227.43L534.34,225.9L538.38,226.02L542.43,227.96L546.48,226.71L550.53,225.93L554.58,226.59L570.77,226.94L574.82,226.69L582.91,226.25L586.96,226.65L619.34,226.74L623.39,226.27L639.58,225.82L643.63,226.53L647.68,225.6L651.73,225.58L655.78,226.43L659.82,225.92L663.87,226.75L667.92,226.51L676.02,226.4L680.06,225.39L684.11,226.32L688.16,226.46L696.26,225.63L700.3,225.31L704.35,226.02L708.4,225.07L712.45,226.27L716.5,226.07L720.54,225.27L724.59,225.67L736.74,225.73L740.78,226.31L744.83,225.3L748.88,225.75L765.07,226.77L769.12,225.54L773.17,226.56L777.22,225.59L785.31,226.39L789.36,225.91L793.41,225.14L797.46,226.15L809.6,225.72L813.65,226.34L817.7,225.68L821.74,225.94L825.79,225.15L829.84,226.44L833.89,226.64L837.94,225.38L850.08,225.31L854.13,226.45L862.22,225.7L866.27,225.88L870.32,226.14L874.37,225.47L882.46,225.85L886.51,225.38L898.66,225.69L902.7,225.2L910.8,226.02L914.85,225.47L918.9,225.78L922.94,225.17L967.47,226.1L971.52,225.62L979.62,226.22L983.66,225.97L1003.9,225.55L1007.95,226.1L1012,226.19" style="vector-effect: none; fill: none; stroke: rgb(67, 67, 72); stroke-opacity: 1; stroke-width: 2px; opacity: 1;"/></g><g class="points"/><g class="text"/></g></g></g><g class="overplot"/><path class="xlines-above crisp" d="M0,0" style="fill: none;"/><path class="ylines-above crisp" d="M0,0" style="fill: none;"/><g class="overlines-above"/><g class="xaxislayer-above"><g class="xtick"><text text-anchor="middle" x="0" y="451" transform="translate(269.35,0)" style="font-family: 'Lucida Grande', 'Open Sans', verdana, arial, sans-serif; font-size: 10px; fill: rgb(0, 0, 0); fill-opacity: 1; white-space: pre; opacity: 1;">50</text></g><g class="xtick"><text text-anchor="middle" x="0" y="451" style="font-family: 'Lucida Grande', 'Open Sans', verdana, arial, sans-serif; font-size: 10px; fill: rgb(0, 0, 0); fill-opacity: 1; white-space: pre; opacity: 1;" transform="translate(471.75,0)">100</text></g><g class="xtick"><text text-anchor="middle" x="0" y="451" style="font-family: 'Lucida Grande', 'Open Sans', verdana, arial, sans-serif; font-size: 10px; fill: rgb(0, 0, 0); fill-opacity: 1; white-space: pre; opacity: 1;" transform="translate(674.15,0)">150</text></g><g class="xtick"><text text-anchor="middle" x="0" y="451" style="font-family: 'Lucida Grande', 'Open Sans', verdana, arial, sans-serif; font-size: 10px; fill: rgb(0, 0, 0); fill-opacity: 1; white-space: pre; opacity: 1;" transform="translate(876.55,0)">200</text></g><g class="xtick"><text text-anchor="middle" x="0" y="451" style="font-family: 'Lucida Grande', 'Open Sans', verdana, arial, sans-serif; font-size: 10px; fill: rgb(0, 0, 0); fill-opacity: 1; white-space: pre; opacity: 1;" transform="translate(1078.95,0)">250</text></g></g><g class="yaxislayer-above"><g class="ytick"><text text-anchor="end" x="65" y="3.5" transform="translate(0,435)" style="font-family: 'Lucida Grande', 'Open Sans', verdana, arial, sans-serif; font-size: 10px; fill: rgb(0, 0, 0); fill-opacity: 1; white-space: pre; opacity: 1;">0%</text></g><g class="ytick"><text text-anchor="end" x="65" y="3.5" style="font-family: 'Lucida Grande', 'Open Sans', verdana, arial, sans-serif; font-size: 10px; fill: rgb(0, 0, 0); fill-opacity: 1; white-space: pre; opacity: 1;" transform="translate(0,358)">20%</text></g><g class="ytick"><text text-anchor="end" x="65" y="3.5" style="font-family: 'Lucida Grande', 'Open Sans', verdana, arial, sans-serif; font-size: 10px; fill: rgb(0, 0, 0); fill-opacity: 1; white-space: pre; opacity: 1;" transform="translate(0,281)">40%</text></g><g class="ytick"><text text-anchor="end" x="65" y="3.5" style="font-family: 'Lucida Grande', 'Open Sans', verdana, arial, sans-serif; font-size: 10px; fill: rgb(0, 0, 0); fill-opacity: 1; white-space: pre; opacity: 1;" transform="translate(0,204)">60%</text></g><g class="ytick"><text text-anchor="end" x="65" y="3.5" style="font-family: 'Lucida Grande', 'Open Sans', verdana, arial, sans-serif; font-size: 10px; fill: rgb(0, 0, 0); fill-opacity: 1; white-space: pre; opacity: 1;" transform="translate(0,127)">80%</text></g><g class="ytick"><text text-anchor="end" x="65" y="3.5" style="font-family: 'Lucida Grande', 'Open Sans', verdana, arial, sans-serif; font-size: 10px; fill: rgb(0, 0, 0); fill-opacity: 1; white-space: pre; opacity: 1;" transform="translate(0,50)">100%</text></g></g><g class="overaxes-above"/></g></g><g class="polarlayer"/><g class="smithlayer"/><g class="ternarylayer"/><g class="geolayer"/><g class="funnelarealayer"/><g class="pielayer"/><g class="iciclelayer"/><g class="treemaplayer"/><g class="sunburstlayer"/><g class="glimages"/><defs id="topdefs-f34dc7"><g class="clips"/></defs><g class="layer-above"><g class="imagelayer"/><g class="shapelayer"/></g><g class="infolayer"><g class="g-gtitle"><text class="gtitle" x="550" y="25" text-anchor="middle" dy="0em" style="font-family: 'Lucida Grande', 'Open Sans', verdana, arial, sans-serif; font-size: 20px; fill: rgb(42, 63, 95); opacity: 1; white-space: pre;">Fastp: Read GC Content (Read 1: Before filtering)</text></g><g class="g-xtitle"><text class="xtitle" x="577" y="472.3" text-anchor="middle" style="font-family: 'Lucida Grande', 'Open Sans', verdana, arial, sans-serif; font-size: 14px; fill: rgb(0, 0, 0); opacity: 0.3; white-space: pre;">Read Position</text></g><g class="g-ytitle"><text class="ytitle" transform="rotate(-90,22.00625,242.5)" x="22.00625" y="242.5" text-anchor="middle" style="font-family: 'Lucida Grande', 'Open Sans', verdana, arial, sans-serif; font-size: 14px; fill: rgb(0, 0, 0); opacity: 0.3; white-space: pre;">R1 Before filtering: Base Content Percent</text></g></g></svg>