<svg class="main-svg" xmlns="http://www.w3.org/2000/svg" xmlns:xlink="http://www.w3.org/1999/xlink" width="2200" height="1000" style="" viewBox="0 0 1100 500"><rect x="0" y="0" width="1100" height="500" style="fill: rgb(255, 255, 255); fill-opacity: 1;"/><defs id="defs-0fb3c0"><g class="clips"><clipPath id="clip0fb3c0xyplot" class="plotclip"><rect width="1014" height="385"/></clipPath><clipPath class="axesclip" id="clip0fb3c0x"><rect x="60" y="0" width="1014" height="500"/></clipPath><clipPath class="axesclip" id="clip0fb3c0y"><rect x="0" y="50" width="1100" height="385"/></clipPath><clipPath class="axesclip" id="clip0fb3c0xy"><rect x="60" y="50" width="1014" height="385"/></clipPath></g><g class="gradients"/><g class="patterns"/></defs><g class="bglayer"/><g class="layer-below"><g class="imagelayer"/><g class="shapelayer"/></g><g class="cartesianlayer"><g class="subplot xy"><g class="layer-subplot"><g class="shapelayer"/><g class="imagelayer"/></g><g class="minor-gridlayer"><g class="x"/><g class="y"/></g><g class="gridlayer"><g class="x"><path class="xgrid crisp" transform="translate(262.8,0)" d="M0,50v385" style="stroke: rgb(0, 0, 0); stroke-opacity: 0.05; stroke-width: 1px;"/><path class="xgrid crisp" transform="translate(465.6,0)" d="M0,50v385" style="stroke: rgb(0, 0, 0); stroke-opacity: 0.05; stroke-width: 1px;"/><path class="xgrid crisp" transform="translate(668.4,0)" d="M0,50v385" style="stroke: rgb(0, 0, 0); stroke-opacity: 0.05; stroke-width: 1px;"/><path class="xgrid crisp" transform="translate(871.2,0)" d="M0,50v385" style="stroke: rgb(0, 0, 0); stroke-opacity: 0.05; stroke-width: 1px;"/></g><g class="y"><path class="ygrid crisp" transform="translate(0,385.85)" d="M60,0h1014" style="stroke: rgb(0, 0, 0); stroke-opacity: 0.05; stroke-width: 1px;"/><path class="ygrid crisp" transform="translate(0,336.7)" d="M60,0h1014" style="stroke: rgb(0, 0, 0); stroke-opacity: 0.05; stroke-width: 1px;"/><path class="ygrid crisp" transform="translate(0,287.55)" d="M60,0h1014" style="stroke: rgb(0, 0, 0); stroke-opacity: 0.05; stroke-width: 1px;"/><path class="ygrid crisp" transform="translate(0,238.4)" d="M60,0h1014" style="stroke: rgb(0, 0, 0); stroke-opacity: 0.05; stroke-width: 1px;"/><path class="ygrid crisp" transform="translate(0,189.25)" d="M60,0h1014" style="stroke: rgb(0, 0, 0); stroke-opacity: 0.05; stroke-width: 1px;"/><path class="ygrid crisp" transform="translate(0,140.1)" d="M60,0h1014" style="stroke: rgb(0, 0, 0); stroke-opacity: 0.05; stroke-width: 1px;"/><path class="ygrid crisp" transform="translate(0,90.95)" d="M60,0h1014" style="stroke: rgb(0, 0, 0); stroke-opacity: 0.05; stroke-width: 1px;"/></g></g><g class="zerolinelayer"><path class="xzl zl crisp" transform="translate(60,0)" d="M0,50v385" style="stroke: rgb(0, 0, 0); stroke-opacity: 0.05; stroke-width: 2px;"/><path class="yzl zl crisp" transform="translate(0,435)" d="M60,0h1014" style="stroke: rgb(0, 0, 0); stroke-opacity: 0.05; stroke-width: 2px;"/></g><g class="layer-between"><g class="shapelayer"/><g class="imagelayer"/></g><path class="xlines-below"/><path class="ylines-below"/><g class="overlines-below"/><g class="xaxislayer-below"/><g class="yaxislayer-below"/><g class="overaxes-below"/><g class="plot" transform="translate(60,50)" clip-path="url(#clip0fb3c0xyplot)"><g class="scatterlayer mlayer"><g class="trace scatter traced47667" style="stroke-miterlimit: 2; opacity: 1;"><g class="fills"/><g class="errorbars"/><g class="lines"><path class="js-line" d="M0,384.96L172.38,384.71L182.52,384.44L212.94,382.13L223.08,380.68L233.22,378.74L243.36,375.46L253.5,370.71L263.64,364.46L273.78,356.96L283.92,347.98L294.06,337.14L304.2,325.05L314.34,310.3L324.48,293.75L344.76,259.73L354.9,240.53L375.18,190.29L385.32,162.03L395.46,133.39L405.6,109.09L415.74,82.38L425.88,61.68L436.02,55.58L446.16,60.1L456.3,73.79L466.44,97.71L476.58,130.09L486.72,168.42L507,246.21L517.14,279.99L527.28,307.74L537.42,328.33L547.56,344.87L557.7,357.2L567.84,366.56L577.98,373.99L588.12,378.35L598.26,380.84L638.82,383.93L648.96,384.52L689.52,384.91L699.66,384.92L973.44,384.99L983.58,384.98L1014,384.99" style="vector-effect: none; fill: none; stroke: rgb(92, 184, 92); stroke-opacity: 1; stroke-width: 2px; opacity: 1;"/></g><g class="points"/><g class="text"/></g><g class="trace scatter traceb6bc09" style="stroke-miterlimit: 2; opacity: 1;"><g class="fills"/><g class="errorbars"/><g class="lines"><path class="js-line" d="M0,384.98L182.52,384.47L192.66,383.98L212.94,382.31L223.08,380.88L233.22,378.65L243.36,375.29L253.5,370.68L263.64,364.58L273.78,356.63L283.92,347.32L294.06,336.75L304.2,324.11L314.34,310.14L324.48,293.56L344.76,258.44L354.9,238.9L375.18,191.12L385.32,164.08L395.46,135.26L405.6,109.21L415.74,83.16L425.88,64.92L436.02,58.35L446.16,61.06L456.3,74.8L466.44,99.36L476.58,130.63L486.72,166.82L507,247.11L517.14,281.96L527.28,308.26L537.42,328.38L547.56,345.23L557.7,357.66L567.84,366.6L577.98,373.6L588.12,378.05L598.26,380.57L618.54,382.54L628.68,383.23L659.1,384.65L669.24,384.71L780.78,384.88L790.92,384.9L993.72,384.72L1003.86,384.27L1014,379.77" style="vector-effect: none; fill: none; stroke: rgb(92, 184, 92); stroke-opacity: 1; stroke-width: 2px; opacity: 1;"/></g><g class="points"/><g class="text"/></g><g class="trace scatter trace0271c3" style="stroke-miterlimit: 2; opacity: 1;"><g class="fills"/><g class="errorbars"/><g class="lines"><path class="js-line" d="M0,384.96L172.38,384.8L182.52,384.54L212.94,382.31L223.08,380.93L233.22,378.97L243.36,375.69L253.5,370.91L263.64,364.63L273.78,357.24L283.92,348.3L294.06,337.39L304.2,325.34L314.34,310.61L324.48,293.95L344.76,259.87L354.9,240.65L375.18,190.42L385.32,162.05L395.46,133.26L405.6,108.98L415.74,82.17L425.88,61.37L436.02,55.24L446.16,59.67L456.3,73.44L466.44,97.43L476.58,129.8L486.72,168.14L507,245.9L517.14,279.7L527.28,307.54L537.42,328.15L547.56,344.7L557.7,357.11L567.84,366.49L577.98,373.92L588.12,378.31L598.26,380.8L638.82,383.95L648.96,384.54L689.52,384.92L699.66,384.93L1014,384.99" style="vector-effect: none; fill: none; stroke: rgb(92, 184, 92); stroke-opacity: 1; stroke-width: 2px; opacity: 1;"/></g><g class="points"/><g class="text"/></g><g class="trace scatter trace5140a2" style="stroke-miterlimit: 2; opacity: 1;"><g class="fills"/><g class="errorbars"/><g class="lines"><path class="js-line" d="M0,384.99L182.52,384.56L192.66,384.1L212.94,382.42L223.08,381.04L233.22,378.88L243.36,375.54L253.5,370.91L263.64,364.78L273.78,356.91L283.92,347.69L294.06,337.1L304.2,324.47L314.34,310.47L324.48,293.83L344.76,258.56L354.9,239L375.18,191.11L385.32,163.93L395.46,134.99L405.6,108.88L415.74,82.67L425.88,64.29L436.02,57.54L446.16,60.2L456.3,74.05L466.44,98.74L476.58,130.04L486.72,166.25L507,246.61L517.14,281.58L527.28,307.99L537.42,328.17L547.56,345.05L557.7,357.58L567.84,366.6L577.98,373.57L588.12,378.05L598.26,380.59L618.54,382.61L628.68,383.31L659.1,384.74L669.24,384.78L780.78,384.97L790.92,384.97L1003.86,384.6L1014,380.34" style="vector-effect: none; fill: none; stroke: rgb(92, 184, 92); stroke-opacity: 1; stroke-width: 2px; opacity: 1;"/></g><g class="points"/><g class="text"/></g><g class="trace scatter trace14376f" style="stroke-miterlimit: 2; opacity: 1;"><g class="fills"/><g class="errorbars"/><g class="lines"><path class="js-line" d="M0,385L192.66,384.61L202.8,384.09L212.94,383.21L223.08,381.45L233.22,379.21L243.36,376.14L253.5,372.1L263.64,365.42L273.78,358.11L283.92,347.08L294.06,332.06L304.2,319.77L314.34,303.25L324.48,282.83L344.76,243.23L354.9,219.05L365.04,192.28L375.18,162.92L385.32,128.94L395.46,101.38L415.74,37.77L425.88,19.26L436.02,19.25L446.16,35.23L456.3,65.3L466.44,113.11L486.72,225.32L496.86,271.65L507,304.77L517.14,325.7L527.28,337.67L537.42,347.96L547.56,358.83L557.7,368.27L567.84,377.1L577.98,381.87L618.54,384.91L628.68,384.92L902.46,385L912.6,385L1014,384.98" style="vector-effect: none; fill: none; stroke: rgb(240, 173, 78); stroke-opacity: 1; stroke-width: 2px; opacity: 1;"/></g><g class="points"/><g class="text"/></g><g class="trace scatter tracef3960c" style="stroke-miterlimit: 2; opacity: 1;"><g class="fills"/><g class="errorbars"/><g class="lines"><path class="js-line" d="M0,385L192.66,384.47L202.8,383.86L212.94,383.37L223.08,381.5L243.36,376.51L253.5,371.42L263.64,365.35L273.78,358.29L283.92,346.89L294.06,333.9L304.2,321.72L314.34,305.43L344.76,247.97L354.9,224.59L365.04,199.87L375.18,172.33L405.6,79.62L415.74,50.42L425.88,31.21L436.02,25.34L446.16,37.03L456.3,63.02L466.44,104.38L476.58,152.34L486.72,206.77L496.86,256.07L507,293.14L517.14,318.51L527.28,335.26L537.42,346.81L557.7,364.51L567.84,372.41L577.98,377.71L588.12,380.49L608.4,383.71L618.54,384.4L648.96,384.85L659.1,384.88L1014,384.92" style="vector-effect: none; fill: none; stroke: rgb(240, 173, 78); stroke-opacity: 1; stroke-width: 2px; opacity: 1;"/></g><g class="points"/><g class="text"/></g><g class="trace scatter trace78ba32" style="stroke-miterlimit: 2; opacity: 1;"><g class="fills"/><g class="errorbars"/><g class="lines"><path class="js-line" d="M0,385L172.38,384.41L182.52,383.98L202.8,382.85L212.94,381.43L233.22,375.28L243.36,371.53L253.5,366.07L263.64,358.54L273.78,349.73L283.92,337.67L294.06,322.58L304.2,309.11L314.34,291.96L324.48,272.12L334.62,253.24L344.76,236.43L354.9,215.65L365.04,192.47L395.46,117.07L405.6,90.07L415.74,66.16L425.88,53.82L436.02,58.7L446.16,73.07L456.3,95.11L466.44,132L486.72,221.66L496.86,260.33L507,289.67L517.14,309.3L537.42,330.34L547.56,342.72L567.84,366.77L577.98,375.55L588.12,378.51L598.26,380.56L618.54,383.88L628.68,384.28L740.22,384.98L750.36,385L1014,384.98" style="vector-effect: none; fill: none; stroke: rgb(240, 173, 78); stroke-opacity: 1; stroke-width: 2px; opacity: 1;"/></g><g class="points"/><g class="text"/></g><g class="trace scatter tracecba44e" style="stroke-miterlimit: 2; opacity: 1;"><g class="fills"/><g class="errorbars"/><g class="lines"><path class="js-line" d="M0,385L182.52,384.26L192.66,383.55L212.94,381.17L223.08,378.54L243.36,371.94L253.5,366.06L263.64,358.76L273.78,350.19L294.06,324.05L304.2,310.25L324.48,274.72L334.62,255.54L354.9,214.89L365.04,192.17L375.18,167.13L385.32,139.61L395.46,112.98L405.6,90.23L415.74,69.66L425.88,55.59L436.02,56.47L446.16,73L456.3,97.64L466.44,133.04L486.72,218.32L496.86,256.23L507,287.27L517.14,308.72L527.28,323.06L537.42,333.96L557.7,355.32L567.84,364.89L577.98,372.9L588.12,377.35L608.4,382.47L618.54,383.62L648.96,384.62L659.1,384.7L1014,384.93" style="vector-effect: none; fill: none; stroke: rgb(240, 173, 78); stroke-opacity: 1; stroke-width: 2px; opacity: 1;"/></g><g class="points"/><g class="text"/></g></g></g><g class="overplot"/><path class="xlines-above crisp" d="M0,0" style="fill: none;"/><path class="ylines-above crisp" d="M0,0" style="fill: none;"/><g class="overlines-above"/><g class="xaxislayer-above"><g class="xtick"><text text-anchor="middle" x="0" y="451" transform="translate(60,0)" style="font-family: 'Lucida Grande', 'Open Sans', verdana, arial, sans-serif; font-size: 10px; fill: rgb(0, 0, 0); fill-opacity: 1; white-space: pre; opacity: 1;">0%</text></g><g class="xtick"><text text-anchor="middle" x="0" y="451" style="font-family: 'Lucida Grande', 'Open Sans', verdana, arial, sans-serif; font-size: 10px; fill: rgb(0, 0, 0); fill-opacity: 1; white-space: pre; opacity: 1;" transform="translate(262.8,0)">20%</text></g><g class="xtick"><text text-anchor="middle" x="0" y="451" style="font-family: 'Lucida Grande', 'Open Sans', verdana, arial, sans-serif; font-size: 10px; fill: rgb(0, 0, 0); fill-opacity: 1; white-space: pre; opacity: 1;" transform="translate(465.6,0)">40%</text></g><g class="xtick"><text text-anchor="middle" x="0" y="451" style="font-family: 'Lucida Grande', 'Open Sans', verdana, arial, sans-serif; font-size: 10px; fill: rgb(0, 0, 0); fill-opacity: 1; white-space: pre; opacity: 1;" transform="translate(668.4,0)">60%</text></g><g class="xtick"><text text-anchor="middle" x="0" y="451" style="font-family: 'Lucida Grande', 'Open Sans', verdana, arial, sans-serif; font-size: 10px; fill: rgb(0, 0, 0); fill-opacity: 1; white-space: pre; opacity: 1;" transform="translate(871.2,0)">80%</text></g><g class="xtick"><text text-anchor="middle" x="0" y="451" style="font-family: 'Lucida Grande', 'Open Sans', verdana, arial, sans-serif; font-size: 10px; fill: rgb(0, 0, 0); fill-opacity: 1; white-space: pre; opacity: 1;" transform="translate(1074,0)">100%</text></g></g><g class="yaxislayer-above"><g class="ytick"><text text-anchor="end" x="54" y="3.5" transform="translate(0,435)" style="font-family: 'Lucida Grande', 'Open Sans', verdana, arial, sans-serif; font-size: 10px; fill: rgb(0, 0, 0); fill-opacity: 1; white-space: pre; opacity: 1;">0%</text></g><g class="ytick"><text text-anchor="end" x="54" y="3.5" style="font-family: 'Lucida Grande', 'Open Sans', verdana, arial, sans-serif; font-size: 10px; fill: rgb(0, 0, 0); fill-opacity: 1; white-space: pre; opacity: 1;" transform="translate(0,385.85)">1%</text></g><g class="ytick"><text text-anchor="end" x="54" y="3.5" style="font-family: 'Lucida Grande', 'Open Sans', verdana, arial, sans-serif; font-size: 10px; fill: rgb(0, 0, 0); fill-opacity: 1; white-space: pre; opacity: 1;" transform="translate(0,336.7)">2%</text></g><g class="ytick"><text text-anchor="end" x="54" y="3.5" style="font-family: 'Lucida Grande', 'Open Sans', verdana, arial, sans-serif; font-size: 10px; fill: rgb(0, 0, 0); fill-opacity: 1; white-space: pre; opacity: 1;" transform="translate(0,287.55)">3%</text></g><g class="ytick"><text text-anchor="end" x="54" y="3.5" style="font-family: 'Lucida Grande', 'Open Sans', verdana, arial, sans-serif; font-size: 10px; fill: rgb(0, 0, 0); fill-opacity: 1; white-space: pre; opacity: 1;" transform="translate(0,238.4)">4%</text></g><g class="ytick"><text text-anchor="end" x="54" y="3.5" style="font-family: 'Lucida Grande', 'Open Sans', verdana, arial, sans-serif; font-size: 10px; fill: rgb(0, 0, 0); fill-opacity: 1; white-space: pre; opacity: 1;" transform="translate(0,189.25)">5%</text></g><g class="ytick"><text text-anchor="end" x="54" y="3.5" style="font-family: 'Lucida Grande', 'Open Sans', verdana, arial, sans-serif; font-size: 10px; fill: rgb(0, 0, 0); fill-opacity: 1; white-space: pre; opacity: 1;" transform="translate(0,140.1)">6%</text></g><g class="ytick"><text text-anchor="end" x="54" y="3.5" style="font-family: 'Lucida Grande', 'Open Sans', verdana, arial, sans-serif; font-size: 10px; fill: rgb(0, 0, 0); fill-opacity: 1; white-space: pre; opacity: 1;" transform="translate(0,90.95)">7%</text></g></g><g class="overaxes-above"/></g></g><g class="polarlayer"/><g class="smithlayer"/><g class="ternarylayer"/><g class="geolayer"/><g class="funnelarealayer"/><g class="pielayer"/><g class="iciclelayer"/><g class="treemaplayer"/><g class="sunburstlayer"/><g class="glimages"/><defs id="topdefs-0fb3c0"><g class="clips"/></defs><g class="layer-above"><g class="imagelayer"/><g class="shapelayer"/></g><g class="infolayer"><g class="g-gtitle"><text class="gtitle" x="550" y="25" text-anchor="middle" dy="0em" style="font-family: 'Lucida Grande', 'Open Sans', verdana, arial, sans-serif; font-size: 20px; fill: rgb(42, 63, 95); opacity: 1; white-space: pre;">FastQC: Per Sequence GC Content (Percentages)</text></g><g class="g-xtitle"><text class="xtitle" x="567" y="472.3" text-anchor="middle" style="font-family: 'Lucida Grande', 'Open Sans', verdana, arial, sans-serif; font-size: 14px; fill: rgb(0, 0, 0); opacity: 0.3; white-space: pre;">% GC</text></g><g class="g-ytitle"><text class="ytitle" transform="rotate(-90,23.725,242.5)" x="23.725" y="242.5" text-anchor="middle" style="font-family: 'Lucida Grande', 'Open Sans', verdana, arial, sans-serif; font-size: 14px; fill: rgb(0, 0, 0); opacity: 0.3; white-space: pre;">Percentage</text></g></g></svg>