<svg class="main-svg" xmlns="http://www.w3.org/2000/svg" xmlns:xlink="http://www.w3.org/1999/xlink" width="2200" height="1000" style="" viewBox="0 0 1100 500"><rect x="0" y="0" width="1100" height="500" style="fill: rgb(255, 255, 255); fill-opacity: 1;"/><defs id="defs-a26e39"><g class="clips"><clipPath id="clipa26e39xyplot" class="plotclip"><rect width="1012" height="385"/></clipPath><clipPath class="axesclip" id="clipa26e39x"><rect x="71" y="0" width="1012" height="500"/></clipPath><clipPath class="axesclip" id="clipa26e39y"><rect x="0" y="50" width="1100" height="385"/></clipPath><clipPath class="axesclip" id="clipa26e39xy"><rect x="71" y="50" width="1012" height="385"/></clipPath></g><g class="gradients"/><g class="patterns"/></defs><g class="bglayer"/><g class="layer-below"><g class="imagelayer"/><g class="shapelayer"/></g><g class="cartesianlayer"><g class="subplot xy"><g class="layer-subplot"><g class="shapelayer"/><g class="imagelayer"/></g><g class="minor-gridlayer"><g class="x"/><g class="y"/></g><g class="gridlayer"><g class="x"><path class="xgrid crisp" transform="translate(269.35,0)" d="M0,50v385" style="stroke: rgb(0, 0, 0); stroke-opacity: 0.05; stroke-width: 1px;"/><path class="xgrid crisp" transform="translate(471.75,0)" d="M0,50v385" style="stroke: rgb(0, 0, 0); stroke-opacity: 0.05; stroke-width: 1px;"/><path class="xgrid crisp" transform="translate(674.15,0)" d="M0,50v385" style="stroke: rgb(0, 0, 0); stroke-opacity: 0.05; stroke-width: 1px;"/><path class="xgrid crisp" transform="translate(876.55,0)" d="M0,50v385" style="stroke: rgb(0, 0, 0); stroke-opacity: 0.05; stroke-width: 1px;"/><path class="xgrid crisp" transform="translate(1078.95,0)" d="M0,50v385" style="stroke: rgb(0, 0, 0); stroke-opacity: 0.05; stroke-width: 1px;"/></g><g class="y"><path class="ygrid crisp" transform="translate(0,358)" d="M71,0h1012" style="stroke: rgb(0, 0, 0); stroke-opacity: 0.05; stroke-width: 1px;"/><path class="ygrid crisp" transform="translate(0,281)" d="M71,0h1012" style="stroke: rgb(0, 0, 0); stroke-opacity: 0.05; stroke-width: 1px;"/><path class="ygrid crisp" transform="translate(0,204)" d="M71,0h1012" style="stroke: rgb(0, 0, 0); stroke-opacity: 0.05; stroke-width: 1px;"/><path class="ygrid crisp" transform="translate(0,127)" d="M71,0h1012" style="stroke: rgb(0, 0, 0); stroke-opacity: 0.05; stroke-width: 1px;"/></g></g><g class="zerolinelayer"><path class="yzl zl crisp" transform="translate(0,435)" d="M71,0h1012" style="stroke: rgb(0, 0, 0); stroke-opacity: 0.05; stroke-width: 2px;"/></g><g class="layer-between"><g class="shapelayer"/><g class="imagelayer"/></g><path class="xlines-below"/><path class="ylines-below"/><g class="overlines-below"/><g class="xaxislayer-below"/><g class="yaxislayer-below"/><g class="overaxes-below"/><g class="plot" transform="translate(71,50)" clip-path="url(#clipa26e39xyplot)"><g class="scatterlayer mlayer"><g class="trace scatter traceeecba5" style="stroke-miterlimit: 2; opacity: 1;"><g class="fills"/><g class="errorbars"/><g class="lines"><path class="js-line" d="M0,145.61L4.05,242.01L8.1,237.49L12.14,242.1L16.19,291.5L20.24,240.36L24.29,234L28.34,233.78L32.38,167.47L36.43,245.16L40.48,209.65L44.53,232.82L48.58,205.89L52.62,204.84L56.67,220.25L60.72,226.69L64.77,231.29L68.82,232.62L72.86,228.66L76.91,226.83L80.96,226.24L85.01,224.81L89.06,224.9L93.1,226.76L97.15,225.88L101.2,224.86L105.25,227.9L109.3,225.05L113.34,225.63L117.39,226.58L121.44,225.22L125.49,225.26L129.54,226.19L133.58,224.13L137.63,224.49L141.68,225.96L145.73,224.95L153.82,226.34L157.87,225.61L161.92,225.26L165.97,225.72L174.06,224.47L178.11,226.41L182.16,224.73L186.21,225.21L190.26,226.61L194.3,225.18L198.35,225.21L202.4,226.86L206.45,225.18L210.5,224.42L214.54,225.26L218.59,224.85L222.64,224.89L226.69,225.71L230.74,224.71L234.78,225.16L238.83,226.34L242.88,225.41L246.93,224.58L250.98,225.88L259.07,223.92L263.12,226.02L267.17,224.71L271.22,224.33L275.26,225.81L279.31,224.83L283.36,224.69L287.41,225.72L295.5,225.15L299.55,225.8L303.6,223.98L307.65,223.7L311.7,225.99L315.74,224.08L327.89,225.14L331.94,224.53L335.98,226.05L340.03,224.88L344.08,224.6L348.13,225.64L356.22,223.74L360.27,225.29L364.32,224.86L368.37,225.29L376.46,224.55L380.51,225.06L384.56,225.7L388.61,228.13L392.66,224.63L396.7,225.16L404.8,224.22L408.85,225.56L412.9,225.3L416.94,224.28L420.99,225.31L425.04,224.31L429.09,224.01L433.14,225.26L441.23,224.28L445.28,225.56L453.38,223.87L457.42,225.46L461.47,224.27L465.52,224.33L469.57,226.16L473.62,226.63L477.66,224.36L481.71,225.37L485.76,224.09L489.81,224.38L493.86,225.81L497.9,224.4L506,225.27L510.05,224.42L522.19,225.06L526.24,224.61L530.29,225.07L534.34,224.07L538.38,223.76L542.43,225.46L546.48,224.42L550.53,224.34L554.58,226.18L558.62,224.71L562.67,224.44L566.72,225.5L570.77,223.92L574.82,224.44L578.86,225.25L582.91,224.62L595.06,225.19L599.1,227.49L603.15,239.4L607.2,279.47" style="vector-effect: none; fill: none; stroke: rgb(124, 181, 236); stroke-opacity: 1; stroke-width: 2px; opacity: 1;"/></g><g class="points"/><g class="text"/></g><g class="trace scatter trace315763" style="stroke-miterlimit: 2; opacity: 1;"><g class="fills"/><g class="errorbars"/><g class="lines"><path class="js-line" d="M0,167.03L4.05,237.47L8.1,236.83L12.14,231.76L16.19,231.2L20.24,237.56L24.29,246.65L28.34,228.93L32.38,230.08L36.43,239.52L40.48,214.17L44.53,217.1L48.58,225.98L52.62,229.53L56.67,228.81L60.72,227.46L64.77,227.53L68.82,227.2L72.86,227.94L76.91,228.04L80.96,226.72L89.06,228.21L93.1,228.38L97.15,226.28L101.2,228.97L117.39,228.74L121.44,227.57L137.63,228.25L141.68,228.6L145.73,227.01L149.78,229.1L153.82,228.14L157.87,229.39L170.02,228.13L174.06,227.84L178.11,228.93L182.16,228.4L194.3,227.75L198.35,229.51L202.4,229.22L206.45,227.93L214.54,228.52L218.59,227.99L222.64,227.91L226.69,228.72L238.83,228.21L242.88,228.62L246.93,228.79L250.98,229.95L255.02,228.32L259.07,227.58L263.12,228.35L267.17,228.01L279.31,228.78L283.36,228.17L287.41,228.56L291.46,227.86L295.5,228.77L299.55,228.35L303.6,227.83L307.65,228.62L311.7,228.1L315.74,228.51L319.79,227.95L323.84,228.88L335.98,228.45L340.03,227.17L344.08,229.25L348.13,228.52L352.18,227.4L356.22,228.28L364.32,227.83L368.37,228.55L372.42,227.87L376.46,228.23L380.51,229.03L384.56,228.84L388.61,228.17L392.66,228.39L404.8,227.83L408.85,229.09L420.99,228L425.04,228.37L433.14,228.91L437.18,227.78L445.28,229.03L449.33,227.61L457.42,228.47L461.47,228.14L485.76,227.86L489.81,228.68L497.9,228.24L501.95,227.73L506,228.39L510.05,228.19L526.24,228.87L530.29,228.47L534.34,228.07L538.38,229.17L550.53,228.58L554.58,228.54L562.67,227.88L566.72,228.97L570.77,228.13L574.82,228.13L578.86,228.67L582.91,228.22L591.01,229L595.06,227.47L603.15,228.95L607.2,228.96L611.25,228L615.3,228.1L619.34,228.16L623.39,229.01L635.54,228.29L639.58,228.31L643.63,228.21L647.68,228.88L651.73,228.23L655.78,228.94L659.82,227.95L663.87,228.33L667.92,229.29L671.97,228.03L676.02,228.39L680.06,227.59L684.11,228.5L688.16,227.91L696.26,228.45L700.3,228.77L704.35,228.21L708.4,229.08L712.45,229.24L716.5,228.19L724.59,229.15L728.64,228.07L732.69,229.08L736.74,229.16L740.78,228L744.83,228.06L748.88,228.81L752.93,228.55L756.98,229.08L761.02,228.36L769.12,229.4L773.17,228.07L781.26,229.11L785.31,228.72L793.41,228.73L797.46,228.06L801.5,229.03L805.55,229.12L813.65,228.48L817.7,228.81L821.74,227.97L825.79,228.73L846.03,228.72L850.08,228.67L854.13,229.12L858.18,228.79L866.27,228.36L870.32,229.15L874.37,228.93L878.42,227.79L890.56,229.1L894.61,228.64L898.66,229.19L902.7,228.23L906.75,228.92L910.8,228.5L918.9,229.06L922.94,228.43L947.23,228.48L951.28,229.53L959.38,228.42L963.42,228.68L971.52,228.74L975.57,229.74L983.66,228.62L987.71,228.72L1007.95,228.81L1012,227.65" style="vector-effect: none; fill: none; stroke: rgb(67, 67, 72); stroke-opacity: 1; stroke-width: 2px; opacity: 1;"/></g><g class="points"/><g class="text"/></g></g></g><g class="overplot"/><path class="xlines-above crisp" d="M0,0" style="fill: none;"/><path class="ylines-above crisp" d="M0,0" style="fill: none;"/><g class="overlines-above"/><g class="xaxislayer-above"><g class="xtick"><text text-anchor="middle" x="0" y="451" transform="translate(269.35,0)" style="font-family: 'Lucida Grande', 'Open Sans', verdana, arial, sans-serif; font-size: 10px; fill: rgb(0, 0, 0); fill-opacity: 1; white-space: pre; opacity: 1;">50</text></g><g class="xtick"><text text-anchor="middle" x="0" y="451" style="font-family: 'Lucida Grande', 'Open Sans', verdana, arial, sans-serif; font-size: 10px; fill: rgb(0, 0, 0); fill-opacity: 1; white-space: pre; opacity: 1;" transform="translate(471.75,0)">100</text></g><g class="xtick"><text text-anchor="middle" x="0" y="451" style="font-family: 'Lucida Grande', 'Open Sans', verdana, arial, sans-serif; font-size: 10px; fill: rgb(0, 0, 0); fill-opacity: 1; white-space: pre; opacity: 1;" transform="translate(674.15,0)">150</text></g><g class="xtick"><text text-anchor="middle" x="0" y="451" style="font-family: 'Lucida Grande', 'Open Sans', verdana, arial, sans-serif; font-size: 10px; fill: rgb(0, 0, 0); fill-opacity: 1; white-space: pre; opacity: 1;" transform="translate(876.55,0)">200</text></g><g class="xtick"><text text-anchor="middle" x="0" y="451" style="font-family: 'Lucida Grande', 'Open Sans', verdana, arial, sans-serif; font-size: 10px; fill: rgb(0, 0, 0); fill-opacity: 1; white-space: pre; opacity: 1;" transform="translate(1078.95,0)">250</text></g></g><g class="yaxislayer-above"><g class="ytick"><text text-anchor="end" x="65" y="3.5" transform="translate(0,435)" style="font-family: 'Lucida Grande', 'Open Sans', verdana, arial, sans-serif; font-size: 10px; fill: rgb(0, 0, 0); fill-opacity: 1; white-space: pre; opacity: 1;">0%</text></g><g class="ytick"><text text-anchor="end" x="65" y="3.5" style="font-family: 'Lucida Grande', 'Open Sans', verdana, arial, sans-serif; font-size: 10px; fill: rgb(0, 0, 0); fill-opacity: 1; white-space: pre; opacity: 1;" transform="translate(0,358)">20%</text></g><g class="ytick"><text text-anchor="end" x="65" y="3.5" style="font-family: 'Lucida Grande', 'Open Sans', verdana, arial, sans-serif; font-size: 10px; fill: rgb(0, 0, 0); fill-opacity: 1; white-space: pre; opacity: 1;" transform="translate(0,281)">40%</text></g><g class="ytick"><text text-anchor="end" x="65" y="3.5" style="font-family: 'Lucida Grande', 'Open Sans', verdana, arial, sans-serif; font-size: 10px; fill: rgb(0, 0, 0); fill-opacity: 1; white-space: pre; opacity: 1;" transform="translate(0,204)">60%</text></g><g class="ytick"><text text-anchor="end" x="65" y="3.5" style="font-family: 'Lucida Grande', 'Open Sans', verdana, arial, sans-serif; font-size: 10px; fill: rgb(0, 0, 0); fill-opacity: 1; white-space: pre; opacity: 1;" transform="translate(0,127)">80%</text></g><g class="ytick"><text text-anchor="end" x="65" y="3.5" style="font-family: 'Lucida Grande', 'Open Sans', verdana, arial, sans-serif; font-size: 10px; fill: rgb(0, 0, 0); fill-opacity: 1; white-space: pre; opacity: 1;" transform="translate(0,50)">100%</text></g></g><g class="overaxes-above"/></g></g><g class="polarlayer"/><g class="smithlayer"/><g class="ternarylayer"/><g class="geolayer"/><g class="funnelarealayer"/><g class="pielayer"/><g class="iciclelayer"/><g class="treemaplayer"/><g class="sunburstlayer"/><g class="glimages"/><defs id="topdefs-a26e39"><g class="clips"/></defs><g class="layer-above"><g class="imagelayer"/><g class="shapelayer"/></g><g class="infolayer"><g class="g-gtitle"><text class="gtitle" x="550" y="25" text-anchor="middle" dy="0em" style="font-family: 'Lucida Grande', 'Open Sans', verdana, arial, sans-serif; font-size: 20px; fill: rgb(42, 63, 95); opacity: 1; white-space: pre;">Fastp: Read GC Content (Read 2: After filtering)</text></g><g class="g-xtitle"><text class="xtitle" x="577" y="472.3" text-anchor="middle" style="font-family: 'Lucida Grande', 'Open Sans', verdana, arial, sans-serif; font-size: 14px; fill: rgb(0, 0, 0); opacity: 0.3; white-space: pre;">Read Position</text></g><g class="g-ytitle"><text class="ytitle" transform="rotate(-90,22.00625,242.5)" x="22.00625" y="242.5" text-anchor="middle" style="font-family: 'Lucida Grande', 'Open Sans', verdana, arial, sans-serif; font-size: 14px; fill: rgb(0, 0, 0); opacity: 0.3; white-space: pre;">R2 After filtering: Base Content Percent</text></g></g></svg>