<svg class="main-svg" xmlns="http://www.w3.org/2000/svg" xmlns:xlink="http://www.w3.org/1999/xlink" width="2200" height="1000" style="" viewBox="0 0 1100 500"><rect x="0" y="0" width="1100" height="500" style="fill: rgb(255, 255, 255); fill-opacity: 1;"/><defs id="defs-596101"><g class="clips"><clipPath id="clip596101xyplot" class="plotclip"><rect width="1012" height="385"/></clipPath><clipPath class="axesclip" id="clip596101x"><rect x="71" y="0" width="1012" height="500"/></clipPath><clipPath class="axesclip" id="clip596101y"><rect x="0" y="50" width="1100" height="385"/></clipPath><clipPath class="axesclip" id="clip596101xy"><rect x="71" y="50" width="1012" height="385"/></clipPath></g><g class="gradients"/><g class="patterns"/></defs><g class="bglayer"/><g class="layer-below"><g class="imagelayer"/><g class="shapelayer"/></g><g class="cartesianlayer"><g class="subplot xy"><g class="layer-subplot"><g class="shapelayer"/><g class="imagelayer"/></g><g class="minor-gridlayer"><g class="x"/><g class="y"/></g><g class="gridlayer"><g class="x"><path class="xgrid crisp" transform="translate(269.35,0)" d="M0,50v385" style="stroke: rgb(0, 0, 0); stroke-opacity: 0.05; stroke-width: 1px;"/><path class="xgrid crisp" transform="translate(471.75,0)" d="M0,50v385" style="stroke: rgb(0, 0, 0); stroke-opacity: 0.05; stroke-width: 1px;"/><path class="xgrid crisp" transform="translate(674.15,0)" d="M0,50v385" style="stroke: rgb(0, 0, 0); stroke-opacity: 0.05; stroke-width: 1px;"/><path class="xgrid crisp" transform="translate(876.55,0)" d="M0,50v385" style="stroke: rgb(0, 0, 0); stroke-opacity: 0.05; stroke-width: 1px;"/><path class="xgrid crisp" transform="translate(1078.95,0)" d="M0,50v385" style="stroke: rgb(0, 0, 0); stroke-opacity: 0.05; stroke-width: 1px;"/></g><g class="y"><path class="ygrid crisp" transform="translate(0,358)" d="M71,0h1012" style="stroke: rgb(0, 0, 0); stroke-opacity: 0.05; stroke-width: 1px;"/><path class="ygrid crisp" transform="translate(0,281)" d="M71,0h1012" style="stroke: rgb(0, 0, 0); stroke-opacity: 0.05; stroke-width: 1px;"/><path class="ygrid crisp" transform="translate(0,204)" d="M71,0h1012" style="stroke: rgb(0, 0, 0); stroke-opacity: 0.05; stroke-width: 1px;"/><path class="ygrid crisp" transform="translate(0,127)" d="M71,0h1012" style="stroke: rgb(0, 0, 0); stroke-opacity: 0.05; stroke-width: 1px;"/></g></g><g class="zerolinelayer"><path class="yzl zl crisp" transform="translate(0,435)" d="M71,0h1012" style="stroke: rgb(0, 0, 0); stroke-opacity: 0.05; stroke-width: 2px;"/></g><g class="layer-between"><g class="shapelayer"/><g class="imagelayer"/></g><path class="xlines-below"/><path class="ylines-below"/><g class="overlines-below"/><g class="xaxislayer-below"/><g class="yaxislayer-below"/><g class="overaxes-below"/><g class="plot" transform="translate(71,50)" clip-path="url(#clip596101xyplot)"><g class="scatterlayer mlayer"><g class="trace scatter tracee304a3" style="stroke-miterlimit: 2; opacity: 1;"><g class="fills"/><g class="errorbars"/><g class="lines"><path class="js-line" d="M0,146.6L4.05,243.32L8.1,237.54L12.14,242.88L16.19,292.05L20.24,241.06L24.29,234.41L28.34,233.92L32.38,167.1L36.43,245.47L40.48,210.43L44.53,233.11L48.58,205.9L52.62,204.44L56.67,221.24L60.72,227.15L64.77,231.55L68.82,233.07L72.86,228.67L85.01,225.5L89.06,225.06L93.1,227.25L97.15,225.96L101.2,225.6L105.25,226.91L109.3,225.91L113.34,225.97L117.39,227.13L121.44,225.03L125.49,224.93L129.54,226.63L133.58,225.19L137.63,226.13L141.68,226.88L145.73,225.17L153.82,227.16L157.87,226.13L161.92,225.7L165.97,226.46L174.06,225.07L178.11,226.72L182.16,225.11L186.21,225.23L190.26,226.63L194.3,225.44L202.4,226.97L206.45,225.43L210.5,224.91L214.54,225.28L222.64,225.53L226.69,226.42L230.74,225.27L234.78,225.65L238.83,226.99L242.88,226L250.98,225.96L255.02,224.81L263.12,226.44L267.17,225.03L275.26,225.82L279.31,225.28L283.36,225.06L287.41,226.56L291.46,225.41L295.5,225.64L299.55,226.09L303.6,223.91L311.7,225.88L315.74,224.33L323.84,226.25L327.89,224.94L335.98,226.44L340.03,224.95L344.08,225.02L348.13,225.93L352.18,224.68L356.22,225.24L360.27,226.45L364.32,225.73L372.42,225.49L376.46,225.05L384.56,226.21L388.61,224.95L392.66,225.03L396.7,226.08L400.75,225L404.8,224.85L408.85,226.69L412.9,225.33L416.94,225.08L420.99,226.18L425.04,224.86L429.09,224.83L433.14,225.88L437.18,224.8L441.23,225.76L445.28,225.61L453.38,224.83L457.42,225.96L461.47,224.98L465.52,225.14L469.57,227.95L473.62,225.58L481.71,225.88L485.76,224.34L493.86,225.81L497.9,224.74L501.95,224.52L506,226.3L510.05,224.88L514.1,225.19L518.14,226.51L522.19,226.17L526.24,225.23L530.29,225.35L534.34,225.46L538.38,224.41L542.43,225.74L546.48,224.79L550.53,224.32L554.58,226.33L562.67,224.91L566.72,226.31L570.77,224.47L574.82,225L578.86,226.37L582.91,224.66L591.01,226.29L595.06,225.6L599.1,228.9L603.15,239.76L607.2,280.66" style="vector-effect: none; fill: none; stroke: rgb(124, 181, 236); stroke-opacity: 1; stroke-width: 2px; opacity: 1;"/></g><g class="points"/><g class="text"/></g><g class="trace scatter trace7adfec" style="stroke-miterlimit: 2; opacity: 1;"><g class="fills"/><g class="errorbars"/><g class="lines"><path class="js-line" d="M0,166.46L4.05,238.26L8.1,236.08L12.14,232.81L16.19,231.82L20.24,237.63L24.29,247.54L28.34,229.7L32.38,229.72L36.43,240.6L40.48,214.26L44.53,217.41L48.58,226.9L52.62,229.29L56.67,229.27L60.72,228.26L64.77,228.11L68.82,228.42L72.86,227.33L76.91,228.05L80.96,227.77L85.01,228.34L89.06,227.7L97.15,227.63L101.2,228.91L109.3,229.03L113.34,227.37L117.39,228.78L121.44,228.58L133.58,228.11L137.63,228.64L141.68,228.16L145.73,228.49L153.82,229.55L157.87,229.74L161.92,228.44L165.97,227.97L174.06,228.5L178.11,228.77L186.21,228.72L190.26,228.61L194.3,228.09L198.35,229.58L214.54,228.31L218.59,228.99L226.69,228.62L230.74,228.34L238.83,228.75L242.88,228.69L250.98,228.81L255.02,228.97L259.07,228L263.12,228.07L271.22,228.51L275.26,228.25L279.31,229.29L283.36,228.59L291.46,229.08L295.5,229.04L303.6,229.16L307.65,227.98L311.7,228.89L315.74,228.92L319.79,228.27L323.84,229.19L327.89,228.62L331.94,228.86L356.22,228.72L360.27,228.24L368.37,228.21L372.42,229.2L380.51,228.31L384.56,228.58L388.61,227.85L392.66,228.21L412.9,228.48L416.94,228.08L420.99,229.5L425.04,228.82L433.14,228.31L437.18,228.38L441.23,229.11L445.28,228.66L453.38,228.61L457.42,228.46L461.47,227.83L465.52,227.97L469.57,228.87L473.62,228.82L485.76,228.45L489.81,229.36L497.9,228.89L501.95,227.44L506,228.63L510.05,228.37L514.1,227.51L518.14,229.24L526.24,228.29L530.29,228.5L538.38,227.99L542.43,229.77L550.53,227.86L554.58,228.64L566.72,228.95L570.77,228.86L599.1,228.8L603.15,228.48L619.34,229L623.39,228.32L631.49,228.36L635.54,227.65L643.63,228.87L647.68,227.93L651.73,227.72L655.78,228.78L659.82,228.26L663.87,229.07L676.02,229.02L680.06,228.04L692.21,229.07L696.26,228.1L700.3,227.96L704.35,228.91L708.4,227.65L712.45,228.82L724.59,228.15L728.64,228.54L732.69,228.89L736.74,228.35L740.78,229.35L744.83,227.73L752.93,228.81L756.98,228.76L765.07,229.53L769.12,228.59L773.17,229.1L777.22,228.62L781.26,229.33L785.31,228.98L789.36,228.93L793.41,227.95L797.46,228.85L801.5,228.37L809.6,228.85L813.65,228.99L825.79,228.29L829.84,229.48L833.89,229.6L837.94,228.4L846.03,228.14L850.08,228.25L854.13,229.14L858.18,229.01L862.22,228.34L866.27,228.71L870.32,229.1L874.37,228.21L882.46,229.09L886.51,228.29L894.61,229.36L898.66,228.9L902.7,227.76L906.75,229.01L910.8,229.35L914.85,228.29L918.9,228.86L922.94,228.16L947.23,229.51L951.28,228.5L955.33,229.18L959.38,228.88L967.47,229.33L971.52,228.88L979.62,228.79L983.66,228.78L987.71,229.36L991.76,228.78L999.86,228.79L1003.9,228.16L1007.95,229.11L1012,227.76" style="vector-effect: none; fill: none; stroke: rgb(67, 67, 72); stroke-opacity: 1; stroke-width: 2px; opacity: 1;"/></g><g class="points"/><g class="text"/></g></g></g><g class="overplot"/><path class="xlines-above crisp" d="M0,0" style="fill: none;"/><path class="ylines-above crisp" d="M0,0" style="fill: none;"/><g class="overlines-above"/><g class="xaxislayer-above"><g class="xtick"><text text-anchor="middle" x="0" y="451" transform="translate(269.35,0)" style="font-family: 'Lucida Grande', 'Open Sans', verdana, arial, sans-serif; font-size: 10px; fill: rgb(0, 0, 0); fill-opacity: 1; white-space: pre; opacity: 1;">50</text></g><g class="xtick"><text text-anchor="middle" x="0" y="451" style="font-family: 'Lucida Grande', 'Open Sans', verdana, arial, sans-serif; font-size: 10px; fill: rgb(0, 0, 0); fill-opacity: 1; white-space: pre; opacity: 1;" transform="translate(471.75,0)">100</text></g><g class="xtick"><text text-anchor="middle" x="0" y="451" style="font-family: 'Lucida Grande', 'Open Sans', verdana, arial, sans-serif; font-size: 10px; fill: rgb(0, 0, 0); fill-opacity: 1; white-space: pre; opacity: 1;" transform="translate(674.15,0)">150</text></g><g class="xtick"><text text-anchor="middle" x="0" y="451" style="font-family: 'Lucida Grande', 'Open Sans', verdana, arial, sans-serif; font-size: 10px; fill: rgb(0, 0, 0); fill-opacity: 1; white-space: pre; opacity: 1;" transform="translate(876.55,0)">200</text></g><g class="xtick"><text text-anchor="middle" x="0" y="451" style="font-family: 'Lucida Grande', 'Open Sans', verdana, arial, sans-serif; font-size: 10px; fill: rgb(0, 0, 0); fill-opacity: 1; white-space: pre; opacity: 1;" transform="translate(1078.95,0)">250</text></g></g><g class="yaxislayer-above"><g class="ytick"><text text-anchor="end" x="65" y="3.5" transform="translate(0,435)" style="font-family: 'Lucida Grande', 'Open Sans', verdana, arial, sans-serif; font-size: 10px; fill: rgb(0, 0, 0); fill-opacity: 1; white-space: pre; opacity: 1;">0%</text></g><g class="ytick"><text text-anchor="end" x="65" y="3.5" style="font-family: 'Lucida Grande', 'Open Sans', verdana, arial, sans-serif; font-size: 10px; fill: rgb(0, 0, 0); fill-opacity: 1; white-space: pre; opacity: 1;" transform="translate(0,358)">20%</text></g><g class="ytick"><text text-anchor="end" x="65" y="3.5" style="font-family: 'Lucida Grande', 'Open Sans', verdana, arial, sans-serif; font-size: 10px; fill: rgb(0, 0, 0); fill-opacity: 1; white-space: pre; opacity: 1;" transform="translate(0,281)">40%</text></g><g class="ytick"><text text-anchor="end" x="65" y="3.5" style="font-family: 'Lucida Grande', 'Open Sans', verdana, arial, sans-serif; font-size: 10px; fill: rgb(0, 0, 0); fill-opacity: 1; white-space: pre; opacity: 1;" transform="translate(0,204)">60%</text></g><g class="ytick"><text text-anchor="end" x="65" y="3.5" style="font-family: 'Lucida Grande', 'Open Sans', verdana, arial, sans-serif; font-size: 10px; fill: rgb(0, 0, 0); fill-opacity: 1; white-space: pre; opacity: 1;" transform="translate(0,127)">80%</text></g><g class="ytick"><text text-anchor="end" x="65" y="3.5" style="font-family: 'Lucida Grande', 'Open Sans', verdana, arial, sans-serif; font-size: 10px; fill: rgb(0, 0, 0); fill-opacity: 1; white-space: pre; opacity: 1;" transform="translate(0,50)">100%</text></g></g><g class="overaxes-above"/></g></g><g class="polarlayer"/><g class="smithlayer"/><g class="ternarylayer"/><g class="geolayer"/><g class="funnelarealayer"/><g class="pielayer"/><g class="iciclelayer"/><g class="treemaplayer"/><g class="sunburstlayer"/><g class="glimages"/><defs id="topdefs-596101"><g class="clips"/></defs><g class="layer-above"><g class="imagelayer"/><g class="shapelayer"/></g><g class="infolayer"><g class="g-gtitle"><text class="gtitle" x="550" y="25" text-anchor="middle" dy="0em" style="font-family: 'Lucida Grande', 'Open Sans', verdana, arial, sans-serif; font-size: 20px; fill: rgb(42, 63, 95); opacity: 1; white-space: pre;">Fastp: Read GC Content (Read 1: After filtering)</text></g><g class="g-xtitle"><text class="xtitle" x="577" y="472.3" text-anchor="middle" style="font-family: 'Lucida Grande', 'Open Sans', verdana, arial, sans-serif; font-size: 14px; fill: rgb(0, 0, 0); opacity: 0.3; white-space: pre;">Read Position</text></g><g class="g-ytitle"><text class="ytitle" transform="rotate(-90,22.00625,242.5)" x="22.00625" y="242.5" text-anchor="middle" style="font-family: 'Lucida Grande', 'Open Sans', verdana, arial, sans-serif; font-size: 14px; fill: rgb(0, 0, 0); opacity: 0.3; white-space: pre;">R1 After filtering: Base Content Percent</text></g></g></svg>