<svg class="main-svg" xmlns="http://www.w3.org/2000/svg" xmlns:xlink="http://www.w3.org/1999/xlink" width="2200" height="1000" style="" viewBox="0 0 1100 500"><rect x="0" y="0" width="1100" height="500" style="fill: rgb(255, 255, 255); fill-opacity: 1;"/><defs id="defs-98c786"><g class="clips"><clipPath id="clip98c786xyplot" class="plotclip"><rect width="1012" height="385"/></clipPath><clipPath class="axesclip" id="clip98c786x"><rect x="71" y="0" width="1012" height="500"/></clipPath><clipPath class="axesclip" id="clip98c786y"><rect x="0" y="50" width="1100" height="385"/></clipPath><clipPath class="axesclip" id="clip98c786xy"><rect x="71" y="50" width="1012" height="385"/></clipPath></g><g class="gradients"/><g class="patterns"/></defs><g class="bglayer"/><g class="layer-below"><g class="imagelayer"/><g class="shapelayer"/></g><g class="cartesianlayer"><g class="subplot xy"><g class="layer-subplot"><g class="shapelayer"/><g class="imagelayer"/></g><g class="minor-gridlayer"><g class="x"/><g class="y"/></g><g class="gridlayer"><g class="x"><path class="xgrid crisp" transform="translate(269.35,0)" d="M0,50v385" style="stroke: rgb(0, 0, 0); stroke-opacity: 0.05; stroke-width: 1px;"/><path class="xgrid crisp" transform="translate(471.75,0)" d="M0,50v385" style="stroke: rgb(0, 0, 0); stroke-opacity: 0.05; stroke-width: 1px;"/><path class="xgrid crisp" transform="translate(674.15,0)" d="M0,50v385" style="stroke: rgb(0, 0, 0); stroke-opacity: 0.05; stroke-width: 1px;"/><path class="xgrid crisp" transform="translate(876.55,0)" d="M0,50v385" style="stroke: rgb(0, 0, 0); stroke-opacity: 0.05; stroke-width: 1px;"/><path class="xgrid crisp" transform="translate(1078.95,0)" d="M0,50v385" style="stroke: rgb(0, 0, 0); stroke-opacity: 0.05; stroke-width: 1px;"/></g><g class="y"><path class="ygrid crisp" transform="translate(0,358)" d="M71,0h1012" style="stroke: rgb(0, 0, 0); stroke-opacity: 0.05; stroke-width: 1px;"/><path class="ygrid crisp" transform="translate(0,281)" d="M71,0h1012" style="stroke: rgb(0, 0, 0); stroke-opacity: 0.05; stroke-width: 1px;"/><path class="ygrid crisp" transform="translate(0,204)" d="M71,0h1012" style="stroke: rgb(0, 0, 0); stroke-opacity: 0.05; stroke-width: 1px;"/><path class="ygrid crisp" transform="translate(0,127)" d="M71,0h1012" style="stroke: rgb(0, 0, 0); stroke-opacity: 0.05; stroke-width: 1px;"/></g></g><g class="zerolinelayer"><path class="yzl zl crisp" transform="translate(0,435)" d="M71,0h1012" style="stroke: rgb(0, 0, 0); stroke-opacity: 0.05; stroke-width: 2px;"/></g><g class="layer-between"><g class="shapelayer"/><g class="imagelayer"/></g><path class="xlines-below"/><path class="ylines-below"/><g class="overlines-below"/><g class="xaxislayer-below"/><g class="yaxislayer-below"/><g class="overaxes-below"/><g class="plot" transform="translate(71,50)" clip-path="url(#clip98c786xyplot)"><g class="scatterlayer mlayer"><g class="trace scatter trace551756" style="stroke-miterlimit: 2; opacity: 1;"><g class="fills"/><g class="errorbars"/><g class="lines"><path class="js-line" d="M0,145.53L4.05,241.84L8.1,237.33L12.14,241.95L16.19,291.27L20.24,240.14L24.29,233.86L28.34,233.61L32.38,167.38L36.43,245L40.48,209.51L44.53,232.65L48.58,205.78L52.62,204.73L56.67,220.1L60.72,226.54L64.77,231.16L68.82,232.48L72.86,228.54L76.91,226.71L80.96,226.11L85.01,224.68L89.06,224.75L93.1,226.61L97.15,225.76L101.2,224.72L105.25,227.78L109.3,224.93L113.34,225.51L117.39,226.49L121.44,225.13L125.49,225.2L129.54,226.17L133.58,224.12L137.63,224.55L141.68,225.84L145.73,224.85L153.82,226.21L157.87,225.5L161.92,225.14L165.97,225.62L174.06,224.34L178.11,226.3L182.16,224.6L186.21,225.11L190.26,226.5L194.3,225.05L198.35,225.12L202.4,226.77L206.45,225.07L210.5,224.31L214.54,225.16L218.59,224.75L222.64,224.8L226.69,225.62L230.74,224.61L234.78,225.07L238.83,226.24L242.88,225.32L246.93,224.47L250.98,225.79L259.07,223.82L263.12,225.91L267.17,224.63L271.22,224.26L275.26,225.71L279.31,224.74L283.36,224.57L287.41,225.64L295.5,225.05L299.55,225.71L303.6,223.88L307.65,223.63L311.7,225.91L315.74,223.96L327.89,225.06L331.94,224.46L335.98,225.97L340.03,224.8L344.08,224.55L348.13,225.54L356.22,223.65L360.27,225.23L364.32,224.78L368.37,225.19L376.46,224.48L380.51,224.96L384.56,225.64L388.61,228.05L392.66,224.55L396.7,225.1L404.8,224.16L408.85,225.52L416.94,224.21L420.99,225.27L429.09,223.95L433.14,225.21L441.23,224.19L445.28,225.54L453.38,223.82L457.42,225.37L461.47,224.21L465.52,224.27L469.57,226.13L473.62,226.55L477.66,224.31L481.71,225.31L485.76,224.02L489.81,224.31L493.86,225.77L497.9,224.32L506,225.2L510.05,224.35L522.19,224.96L526.24,224.56L530.29,225.01L534.34,224.01L538.38,223.71L542.43,225.39L546.48,224.39L550.53,224.28L554.58,226.13L558.62,224.64L562.67,224.39L566.72,225.45L570.77,223.88L574.82,224.36L578.86,225.2L582.91,224.54L595.06,225.12L599.1,227.38L603.15,239.28L607.2,279.33" style="vector-effect: none; fill: none; stroke: rgb(124, 181, 236); stroke-opacity: 1; stroke-width: 2px; opacity: 1;"/></g><g class="points"/><g class="text"/></g><g class="trace scatter tracec9f1ee" style="stroke-miterlimit: 2; opacity: 1;"><g class="fills"/><g class="errorbars"/><g class="lines"><path class="js-line" d="M0,166.12L4.05,238.29L8.1,237.65L12.14,230.44L16.19,229.9L20.24,236.23L24.29,247.4L28.34,229.81L32.38,228.79L36.43,240.32L40.48,212.99L44.53,215.88L48.58,224.7L52.62,230.32L56.67,227.53L60.72,226.18L64.77,228.31L68.82,225.94L72.86,228.76L76.91,228.88L80.96,225.47L89.06,226.92L93.1,229.18L97.15,227.13L101.2,229.8L105.25,227.7L109.3,229.33L113.34,227.54L117.39,229.5L121.44,226.34L125.49,228.26L129.54,226.42L133.58,226.35L137.63,227.03L141.68,229.42L145.73,227.68L149.78,229.86L161.92,227.46L165.97,227.27L170.02,226.81L174.06,228.36L178.11,227.61L182.16,229.1L186.21,228.81L190.26,227.2L198.35,230L202.4,227.94L206.45,228.4L210.5,227.01L218.59,226.43L222.64,228.23L230.74,226.95L234.78,228.59L238.83,226.71L242.88,227L246.93,227.19L250.98,228.41L255.02,226.79L259.07,227.52L263.12,228.58L267.17,228.03L271.22,226.85L275.26,228.6L279.31,228.95L283.36,228.4L287.41,228.8L291.46,227.97L295.5,229.01L299.55,228.59L303.6,227.92L307.65,228.7L311.7,228.22L315.74,228.53L319.79,227.96L323.84,228.93L335.98,227.75L340.03,226.34L344.08,228.41L348.13,227.48L352.18,226.51L356.22,227.04L364.32,226.78L368.37,227.35L372.42,226.64L376.46,227.08L384.56,227.33L388.61,226.63L400.75,226.75L404.8,225.99L408.85,227.34L412.9,227.11L420.99,226.17L425.04,226.51L429.09,226.3L433.14,226.97L437.18,225.71L441.23,226.36L445.28,227.23L449.33,225.71L457.42,226.57L461.47,226.16L465.52,226.05L469.57,226.71L485.76,225.55L489.81,226.51L501.95,225.44L506,226.02L514.1,225.99L518.14,226.15L530.29,225.77L534.34,225.21L538.38,226.48L542.43,225.98L546.48,225.45L550.53,225.73L562.67,225.16L566.72,225.85L574.82,224.96L578.86,225.47L582.91,224.81L586.96,225.23L591.01,225.79L595.06,224.09L603.15,225.54L607.2,225.35L611.25,224.29L615.3,224.6L627.44,225L631.49,224.76L643.63,224.51L647.68,224.99L651.73,224.24L655.78,225.01L659.82,223.95L663.87,224.18L667.92,225.07L671.97,223.98L676.02,224.31L680.06,223.42L684.11,224.29L688.16,223.43L692.21,224.06L696.26,223.9L700.3,224.26L704.35,223.55L712.45,224.64L716.5,223.51L724.59,224.28L728.64,223.02L732.69,224.15L736.74,224.04L740.78,223.09L744.83,222.98L748.88,223.86L752.93,223.36L756.98,223.81L761.02,223.36L769.12,223.96L773.17,222.7L781.26,223.7L785.31,223.26L789.36,223.68L793.41,223.15L797.46,222.67L801.5,223.31L817.7,222.87L821.74,222.34L833.89,222.75L837.94,222.45L874.37,222.18L878.42,221.05L890.56,222.16L894.61,221.4L898.66,222.01L902.7,221.14L906.75,221.5L910.8,221.04L918.9,221.75L922.94,221.12L931.04,220.23L935.09,220.6L947.23,220.63L951.28,221.59L955.33,220.42L959.38,220.38L979.62,220.74L983.66,220.2L1007.95,219.85L1012,208.94" style="vector-effect: none; fill: none; stroke: rgb(67, 67, 72); stroke-opacity: 1; stroke-width: 2px; opacity: 1;"/></g><g class="points"/><g class="text"/></g></g></g><g class="overplot"/><path class="xlines-above crisp" d="M0,0" style="fill: none;"/><path class="ylines-above crisp" d="M0,0" style="fill: none;"/><g class="overlines-above"/><g class="xaxislayer-above"><g class="xtick"><text text-anchor="middle" x="0" y="451" transform="translate(269.35,0)" style="font-family: 'Lucida Grande', 'Open Sans', verdana, arial, sans-serif; font-size: 10px; fill: rgb(0, 0, 0); fill-opacity: 1; white-space: pre; opacity: 1;">50</text></g><g class="xtick"><text text-anchor="middle" x="0" y="451" style="font-family: 'Lucida Grande', 'Open Sans', verdana, arial, sans-serif; font-size: 10px; fill: rgb(0, 0, 0); fill-opacity: 1; white-space: pre; opacity: 1;" transform="translate(471.75,0)">100</text></g><g class="xtick"><text text-anchor="middle" x="0" y="451" style="font-family: 'Lucida Grande', 'Open Sans', verdana, arial, sans-serif; font-size: 10px; fill: rgb(0, 0, 0); fill-opacity: 1; white-space: pre; opacity: 1;" transform="translate(674.15,0)">150</text></g><g class="xtick"><text text-anchor="middle" x="0" y="451" style="font-family: 'Lucida Grande', 'Open Sans', verdana, arial, sans-serif; font-size: 10px; fill: rgb(0, 0, 0); fill-opacity: 1; white-space: pre; opacity: 1;" transform="translate(876.55,0)">200</text></g><g class="xtick"><text text-anchor="middle" x="0" y="451" style="font-family: 'Lucida Grande', 'Open Sans', verdana, arial, sans-serif; font-size: 10px; fill: rgb(0, 0, 0); fill-opacity: 1; white-space: pre; opacity: 1;" transform="translate(1078.95,0)">250</text></g></g><g class="yaxislayer-above"><g class="ytick"><text text-anchor="end" x="65" y="3.5" transform="translate(0,435)" style="font-family: 'Lucida Grande', 'Open Sans', verdana, arial, sans-serif; font-size: 10px; fill: rgb(0, 0, 0); fill-opacity: 1; white-space: pre; opacity: 1;">0%</text></g><g class="ytick"><text text-anchor="end" x="65" y="3.5" style="font-family: 'Lucida Grande', 'Open Sans', verdana, arial, sans-serif; font-size: 10px; fill: rgb(0, 0, 0); fill-opacity: 1; white-space: pre; opacity: 1;" transform="translate(0,358)">20%</text></g><g class="ytick"><text text-anchor="end" x="65" y="3.5" style="font-family: 'Lucida Grande', 'Open Sans', verdana, arial, sans-serif; font-size: 10px; fill: rgb(0, 0, 0); fill-opacity: 1; white-space: pre; opacity: 1;" transform="translate(0,281)">40%</text></g><g class="ytick"><text text-anchor="end" x="65" y="3.5" style="font-family: 'Lucida Grande', 'Open Sans', verdana, arial, sans-serif; font-size: 10px; fill: rgb(0, 0, 0); fill-opacity: 1; white-space: pre; opacity: 1;" transform="translate(0,204)">60%</text></g><g class="ytick"><text text-anchor="end" x="65" y="3.5" style="font-family: 'Lucida Grande', 'Open Sans', verdana, arial, sans-serif; font-size: 10px; fill: rgb(0, 0, 0); fill-opacity: 1; white-space: pre; opacity: 1;" transform="translate(0,127)">80%</text></g><g class="ytick"><text text-anchor="end" x="65" y="3.5" style="font-family: 'Lucida Grande', 'Open Sans', verdana, arial, sans-serif; font-size: 10px; fill: rgb(0, 0, 0); fill-opacity: 1; white-space: pre; opacity: 1;" transform="translate(0,50)">100%</text></g></g><g class="overaxes-above"/></g></g><g class="polarlayer"/><g class="smithlayer"/><g class="ternarylayer"/><g class="geolayer"/><g class="funnelarealayer"/><g class="pielayer"/><g class="iciclelayer"/><g class="treemaplayer"/><g class="sunburstlayer"/><g class="glimages"/><defs id="topdefs-98c786"><g class="clips"/></defs><g class="layer-above"><g class="imagelayer"/><g class="shapelayer"/></g><g class="infolayer"><g class="g-gtitle"><text class="gtitle" x="550" y="25" text-anchor="middle" dy="0em" style="font-family: 'Lucida Grande', 'Open Sans', verdana, arial, sans-serif; font-size: 20px; fill: rgb(42, 63, 95); opacity: 1; white-space: pre;">Fastp: Read GC Content (Read 2: Before filtering)</text></g><g class="g-xtitle"><text class="xtitle" x="577" y="472.3" text-anchor="middle" style="font-family: 'Lucida Grande', 'Open Sans', verdana, arial, sans-serif; font-size: 14px; fill: rgb(0, 0, 0); opacity: 0.3; white-space: pre;">Read Position</text></g><g class="g-ytitle"><text class="ytitle" transform="rotate(-90,22.00625,242.5)" x="22.00625" y="242.5" text-anchor="middle" style="font-family: 'Lucida Grande', 'Open Sans', verdana, arial, sans-serif; font-size: 14px; fill: rgb(0, 0, 0); opacity: 0.3; white-space: pre;">R2 Before filtering: Base Content Percent</text></g></g></svg>